<?xml version="1.0" encoding="utf-8"?>
<!-- Generator: Adobe Illustrator 16.0.0, SVG Export Plug-In . SVG Version: 6.00 Build 0)  -->
<!DOCTYPE svg PUBLIC "-//W3C//DTD SVG 1.0//EN" "http://www.w3.org/TR/2001/REC-SVG-20010904/DTD/svg10.dtd">
<svg version="1.0" id="Layer_1" xmlns="http://www.w3.org/2000/svg" xmlns:xlink="http://www.w3.org/1999/xlink" x="0px" y="0px"
	 width="32px" height="33px" viewBox="0 0 32 33" enable-background="new 0 0 32 33" xml:space="preserve" >
	 <g transform="rotate(19.958215713500977 17.902444839477536,16.379949569702152) ">
	<path fill="#A8CD1B" d="M11.097441961288451,18.526453016281128 c-0.11200000000000006,0.11100000000000006 -0.1830000000000001,0.1770000000000001 -0.25,0.2470000000000001 c-0.1580000000000001,0.16600000000000015 -0.3110000000000002,0.33800000000000036 -0.4720000000000002,0.501 c-0.5920000000000004,0.6000000000000004 -1.2970000000000002,0.794 -2.117,0.5890000000000004 c-0.3920000000000003,-0.09800000000000011 -0.787,-0.1780000000000001 -1.196,-0.1450000000000001 C6.620441961288453,19.756453016281128 6.287441961288453,20.096453016281128 6.275441961288452,20.528453016281127 c-0.011000000000000012,0.4100000000000002 0.3050000000000002,0.6510000000000006 0.6960000000000007,0.519 c0.11700000000000008,-0.03900000000000003 0.2210000000000001,-0.11300000000000006 0.3600000000000002,-0.1860000000000001 c-0.04200000000000003,0.08600000000000008 -0.06200000000000005,0.1540000000000001 -0.101,0.2110000000000001 c-0.234,0.33900000000000036 -0.5770000000000004,0.4070000000000002 -0.9500000000000004,0.3510000000000002 c-0.3070000000000002,-0.04500000000000004 -0.515,-0.22900000000000015 -0.6030000000000004,-0.533 c-0.09100000000000011,-0.3140000000000002 0.03400000000000003,-0.6720000000000007 0.34300000000000036,-0.8930000000000005 c0.2170000000000001,-0.1540000000000001 0.458,-0.271 0.6880000000000007,-0.405 c0.09900000000000012,-0.05700000000000003 0.19700000000000015,-0.11700000000000008 0.3250000000000003,-0.19300000000000014 c-0.06700000000000007,-0.03200000000000003 -0.0900000000000001,-0.05500000000000003 -0.11000000000000006,-0.05200000000000004 c-0.4150000000000002,0.04600000000000005 -0.81,0.1570000000000001 -1.1600000000000001,0.3930000000000003 c-0.7560000000000004,0.508 -1,1.5270000000000001 -0.5640000000000004,2.318 c0.4160000000000002,0.7540000000000004 1.3050000000000002,0.9450000000000004 1.932,0.521 c0.028000000000000014,-0.019000000000000013 0.06000000000000004,-0.03200000000000003 0.10700000000000005,-0.05700000000000003 c-0.2070000000000001,0.454 -1.079,0.7480000000000004 -1.915,0.4260000000000002 c-0.51,-0.19600000000000015 -0.903,-0.525 -1.11,-1.043 c-0.201,-0.505 -0.11800000000000008,-1.008 0.06400000000000006,-1.552 c-0.11400000000000007,0.028000000000000014 -0.1870000000000001,0.05000000000000004 -0.261,0.06400000000000006 c-0.2420000000000001,0.04400000000000004 -0.4840000000000002,0.12000000000000002 -0.7270000000000004,0.12100000000000002 c-0.46,0.003000000000000004 -0.6430000000000005,-0.33300000000000035 -0.4120000000000002,-0.7260000000000004 c0.08200000000000007,-0.139 0.19800000000000015,-0.255 0.2970000000000002,-0.3800000000000002 c0.04200000000000003,0.028000000000000014 0.06400000000000006,0.035 0.06700000000000007,0.04800000000000003 c0.11400000000000007,0.464 0.4400000000000002,0.6290000000000004 0.8940000000000005,0.45 c0.2470000000000001,-0.09700000000000011 0.4360000000000002,-0.27 0.6020000000000004,-0.4690000000000002 c0.2110000000000001,-0.254 0.4120000000000002,-0.518 0.6260000000000004,-0.7690000000000005 c0.272,-0.3210000000000003 0.5890000000000004,-0.5880000000000004 1.015,-0.6710000000000007 c0.2130000000000001,-0.04200000000000003 0.4370000000000002,-0.03600000000000001 0.6560000000000006,-0.04800000000000003 c0.10600000000000002,-0.006000000000000008 0.252,0.02900000000000002 0.263,-0.11800000000000008 c0.008000000000000007,-0.133 -0.136,-0.16400000000000015 -0.2430000000000001,-0.16800000000000018 c-0.136,-0.008000000000000007 -0.275,0.005000000000000004 -0.4100000000000002,0.024000000000000014 c-0.2960000000000002,0.04100000000000003 -0.5850000000000004,0.04500000000000004 -0.8670000000000004,-0.06900000000000008 C5.437441961288452,17.50545301628113 5.251441961288452,17.22545301628113 5.258441961288453,16.878453016281128 c0.003000000000000004,-0.1900000000000001 0.08700000000000008,-0.33300000000000035 0.23600000000000004,-0.4410000000000002 c0.1550000000000001,-0.11300000000000006 0.3640000000000002,-0.1530000000000001 0.6180000000000004,-0.11800000000000008 c-0.03400000000000003,0.020000000000000014 -0.05100000000000004,0.035 -0.07200000000000002,0.04100000000000003 c-0.19300000000000014,0.05500000000000003 -0.33400000000000035,0.17 -0.3510000000000002,0.3760000000000002 c-0.017000000000000015,0.2 0.09500000000000011,0.3510000000000002 0.255,0.459 c0.1790000000000001,0.12300000000000005 0.3830000000000003,0.1780000000000001 0.5960000000000004,0.1860000000000001 c0.2110000000000001,0.007000000000000008 0.4230000000000002,0.015000000000000012 0.6330000000000005,-0.0010000000000000009 c0.6080000000000004,-0.04800000000000003 1.185,0.06500000000000006 1.749,0.2880000000000002 c0.264,0.10400000000000002 0.537,0.1880000000000001 0.806,0.273 c0.6090000000000004,0.19300000000000014 1.201,0.127 1.7630000000000003,-0.1550000000000001 c0.3190000000000003,-0.16100000000000014 0.6330000000000005,-0.33700000000000035 0.924,-0.543 c0.9490000000000004,-0.6730000000000007 2.02,-0.935 3.162,-0.9610000000000004 c0.39500000000000035,-0.009000000000000011 0.79,0.006000000000000008 1.184,-0.0020000000000000018 c0.135,-0.003000000000000004 0.278,-0.023000000000000027 0.401,-0.07300000000000002 c0.2940000000000002,-0.12000000000000002 0.403,-0.4170000000000002 0.272,-0.7060000000000004 c-0.1530000000000001,-0.33700000000000035 -0.4450000000000003,-0.4750000000000002 -0.79,-0.519 c-0.4170000000000002,-0.05400000000000005 -0.8290000000000004,-0.0020000000000000018 -1.221,0.138 c-0.6380000000000005,0.22900000000000015 -1.271,0.4710000000000002 -1.899,0.7270000000000004 c-0.7300000000000004,0.2980000000000002 -1.454,0.6090000000000004 -2.234,0.7630000000000005 c-1.6480000000000001,0.3250000000000003 -2.975,-0.2190000000000001 -4.042,-1.477 c-0.020000000000000014,-0.024000000000000014 -0.026000000000000027,-0.06000000000000004 -0.04900000000000003,-0.11500000000000007 c0.2950000000000002,0.09800000000000011 0.558,0.19600000000000015 0.8280000000000004,0.272 c0.7660000000000005,0.2160000000000001 1.5390000000000001,0.20500000000000004 2.317,0.08100000000000006 c0.981,-0.1550000000000001 1.924,-0.46 2.879,-0.7200000000000004 c0.7090000000000004,-0.19200000000000014 1.4260000000000002,-0.34200000000000036 2.16,-0.39500000000000035 c0.5700000000000004,-0.04200000000000003 1.137,0.013000000000000012 1.6880000000000006,0.1800000000000001 c0.4430000000000002,0.135 0.8250000000000004,0.3560000000000002 1.042,0.8320000000000004 c0.08000000000000006,-0.134 0.03800000000000001,-0.233 0,-0.3300000000000003 c-0.125,-0.3210000000000003 -0.3560000000000002,-0.553 -0.6350000000000005,-0.7410000000000004 c-0.528,-0.3550000000000002 -1.122,-0.541 -1.741,-0.6450000000000006 c-0.926,-0.1560000000000001 -1.858,-0.17500000000000004 -2.798,-0.129 c-1.338,0.06600000000000006 -2.678,0.1550000000000001 -4.019,0.06600000000000006 C7.750441961288452,13.41145301628113 6.620441961288453,13.162453016281127 5.605441961288452,12.522453016281126 c-0.9440000000000004,-0.5960000000000004 -1.6280000000000001,-1.4260000000000002 -2.104,-2.4210000000000003 C3.2474419612884526,9.565453016281129 3.0634419612884525,8.994453016281128 2.8484419612884517,8.439453016281128 C2.8394419612884523,8.415453016281127 2.8474419612884523,8.386453016281127 2.8474419612884523,8.328453016281127 C2.8954419612884523,8.378453016281128 2.926441961288452,8.406453016281128 2.952441961288452,8.439453016281128 c1.2650000000000001,1.532 2.882,2.535 4.751,3.157 c0.926,0.3090000000000002 1.8760000000000003,0.503 2.8440000000000003,0.6090000000000004 c0.9570000000000004,0.10400000000000002 1.916,0.1830000000000001 2.874,0.281 c0.984,0.101 1.976,0.16600000000000015 2.932,0.4400000000000002 c0.39400000000000035,0.11300000000000006 0.786,0.261 1.147,0.453 c0.796,0.4240000000000002 1.2810000000000001,1.081 1.354,2.005 c0.0010000000000000009,0.026000000000000027 0.013000000000000012,0.05300000000000004 0.021000000000000015,0.07800000000000006 c0.0020000000000000018,0.008000000000000007 0.013000000000000012,0.013000000000000012 0.04300000000000004,0.04200000000000003 c0.024000000000000014,-0.06300000000000006 0.05700000000000003,-0.11300000000000006 0.06100000000000004,-0.16600000000000015 c0.06200000000000005,-0.6820000000000007 -0.1520000000000001,-1.266 -0.6350000000000005,-1.75 c-0.33500000000000035,-0.33700000000000035 -0.7410000000000004,-0.5680000000000004 -1.174,-0.7530000000000004 c-0.6630000000000007,-0.2820000000000002 -1.359,-0.453 -2.069,-0.541 c-0.9550000000000004,-0.11900000000000008 -1.916,-0.19200000000000014 -2.873,-0.2900000000000002 C10.640441961288452,11.841453016281129 9.059441961288453,11.637453016281128 7.537441961288451,11.124453016281128 C6.2044419612884525,10.675453016281129 5.006441961288452,10.006453016281128 4.019441961288452,8.987453016281128 C3.2224419612884523,8.164453016281128 2.6564419612884524,7.215453016281128 2.423441961288452,6.0844530162811274 C2.341441961288452,5.689453016281128 2.306441961288452,5.2894530162811275 2.325441961288452,4.831453016281127 C2.386441961288452,4.899453016281129 2.420441961288452,4.9254530162811285 2.439441961288452,4.958453016281128 c1.043,1.776 2.574,2.988 4.424,3.832 c1.314,0.6000000000000004 2.6900000000000004,1.016 4.087,1.373 c1.5190000000000001,0.3890000000000003 3.041,0.7600000000000005 4.554,1.165 c0.8600000000000004,0.23 1.7000000000000002,0.53 2.481,0.9680000000000004 c0.1470000000000001,0.08200000000000007 0.2940000000000002,0.16700000000000018 0.458,0.23600000000000004 c-0.11600000000000008,-0.3060000000000002 -0.34700000000000036,-0.5660000000000004 -0.26,-0.988 c0.06900000000000008,0.09400000000000011 0.1,0.171 0.1560000000000001,0.20500000000000004 c0.07200000000000002,0.04300000000000004 0.17,0.08400000000000007 0.2460000000000001,0.06900000000000008 c0.11300000000000006,-0.023000000000000027 0.1460000000000001,-0.14300000000000004 0.127,-0.2450000000000001 c-0.020000000000000014,-0.11400000000000007 -0.05500000000000003,-0.232 -0.11400000000000007,-0.3300000000000003 c-0.07100000000000002,-0.11700000000000008 -0.17400000000000004,-0.2130000000000001 -0.261,-0.3190000000000003 c-0.05500000000000003,-0.06800000000000007 -0.10600000000000002,-0.14 -0.1550000000000001,-0.203 c0.024000000000000014,-0.030000000000000027 0.02900000000000002,-0.04200000000000003 0.035,-0.04200000000000003 c0.3250000000000003,0 0.5930000000000004,-0.11600000000000008 0.772,-0.3930000000000003 c0.20400000000000001,-0.3160000000000002 0.269,-0.6610000000000007 0.17,-1.028 c-0.03800000000000001,-0.14 -0.09100000000000011,-0.276 -0.1470000000000001,-0.4440000000000003 c0.3230000000000003,0.10600000000000002 0.456,0.3590000000000002 0.5940000000000004,0.6330000000000005 c0.10800000000000005,-0.277 0.09800000000000011,-0.6000000000000004 0.3650000000000002,-0.8150000000000004 c0.04100000000000003,0.05400000000000005 0.07700000000000005,0.10200000000000002 0.11400000000000007,0.1500000000000001 c0.1840000000000001,0.2410000000000001 0.2850000000000002,0.266 0.562,0.133 c0.6280000000000004,-0.3020000000000002 1.271,-0.5730000000000004 1.944,-0.7600000000000005 c0.06200000000000005,-0.018000000000000013 0.12300000000000005,-0.03700000000000001 0.1860000000000001,-0.05000000000000004 c0.2400000000000001,-0.05100000000000004 0.4370000000000002,-0.16100000000000014 0.6090000000000004,-0.34500000000000036 c0.2480000000000001,-0.264 0.558,-0.2930000000000002 0.8490000000000004,-0.11600000000000008 c0.17500000000000004,0.10600000000000002 0.22200000000000014,0.19100000000000014 0.16900000000000018,0.3880000000000003 c-0.04100000000000003,0.1490000000000001 -0.04200000000000003,0.276 0.024000000000000014,0.4240000000000002 c0.11400000000000007,0.261 -0.09100000000000011,0.7500000000000004 -0.3500000000000002,0.8760000000000004 c-0.07400000000000002,0.03600000000000001 -0.1530000000000001,0.06100000000000004 -0.23,0.08900000000000009 c-0.6620000000000007,0.2410000000000001 -1.182,0.6590000000000007 -1.572,1.242 c-0.11700000000000008,0.17500000000000004 -0.23500000000000001,0.3520000000000002 -0.33800000000000036,0.535 c-0.1780000000000001,0.3120000000000002 -0.4350000000000002,0.462 -0.795,0.4270000000000002 c-0.06200000000000005,-0.006000000000000008 -0.12300000000000005,0 -0.234,0 c0.05500000000000003,0.06800000000000007 0.07800000000000006,0.128 0.11100000000000006,0.134 c0.171,0.02900000000000002 0.34400000000000036,0.06600000000000006 0.516,0.06000000000000004 c0.20500000000000004,-0.007000000000000008 0.3290000000000003,0.05100000000000004 0.4460000000000003,0.233 c0.1570000000000001,0.2450000000000001 0.3640000000000002,0.459 0.558,0.6800000000000007 c0.255,0.2890000000000002 0.527,0.5630000000000004 0.775,0.8580000000000004 c0.34100000000000036,0.402 0.6200000000000004,0.8460000000000004 0.7520000000000004,1.363 c0.16700000000000018,0.6560000000000006 0.08500000000000008,1.292 -0.1880000000000001,1.907 c-0.05500000000000003,0.125 -0.11500000000000007,0.2490000000000001 -0.171,0.3720000000000002 c0.1840000000000001,0.0900000000000001 0.2950000000000002,0.06900000000000008 0.3720000000000002,-0.11300000000000006 c0.11700000000000008,-0.278 0.22600000000000015,-0.5630000000000004 0.2950000000000002,-0.8560000000000004 c0.06200000000000005,-0.265 0.06400000000000006,-0.543 0.09600000000000011,-0.8340000000000004 c0.04100000000000003,0.014000000000000007 0.09400000000000011,0.021000000000000015 0.137,0.04600000000000005 c0.6210000000000004,0.3610000000000002 1.2930000000000001,0.4160000000000002 1.9729999999999999,0.276 c0.5990000000000004,-0.125 1.195,-0.2900000000000002 1.771,-0.4940000000000002 c0.4480000000000003,-0.1580000000000001 0.8510000000000004,-0.14 1.276,0.04700000000000003 c0.8140000000000004,0.3570000000000002 1.6420000000000003,0.6840000000000007 2.509,0.8950000000000006 c0.05300000000000004,0.013000000000000012 0.10800000000000005,0.021000000000000015 0.16100000000000014,0.03600000000000001 c0.2430000000000001,0.06400000000000006 0.257,0.07700000000000005 0.2490000000000001,0.33400000000000035 c-0.005000000000000004,0.17200000000000001 0.07,0.2990000000000002 0.1880000000000001,0.4110000000000002 c0.1880000000000001,0.1760000000000001 0.3780000000000002,0.34800000000000036 0.56,0.53 c0.08100000000000006,0.08100000000000006 0.203,0.1770000000000001 0.135,0.3050000000000002 c-0.06900000000000008,0.129 -0.2100000000000001,0.06500000000000006 -0.3270000000000003,0.04900000000000003 c-0.547,-0.07600000000000005 -1.076,-0.22400000000000014 -1.593,-0.4170000000000002 c-0.08600000000000008,-0.031000000000000028 -0.16900000000000018,-0.07 -0.25,-0.11300000000000006 c-0.10900000000000006,-0.05800000000000004 -0.13,-0.1490000000000001 -0.07800000000000006,-0.255 c0.024000000000000014,-0.05100000000000004 0.05700000000000003,-0.09600000000000011 0.08400000000000007,-0.14400000000000004 c0.1450000000000001,-0.259 0.11100000000000006,-0.404 -0.16200000000000014,-0.529 c-0.2410000000000001,-0.10900000000000006 -0.4950000000000002,-0.19100000000000014 -0.7470000000000004,-0.276 c-0.3550000000000002,-0.12300000000000005 -0.7210000000000004,-0.2170000000000001 -1.067,-0.3610000000000002 c-0.4240000000000002,-0.1760000000000001 -0.7160000000000004,0.016000000000000014 -1.027,0.2920000000000002 c0.08300000000000007,0.10400000000000002 0.1480000000000001,0.202 0.22800000000000015,0.2870000000000002 c0.6380000000000005,0.6760000000000007 1.401,1.18 2.223,1.601 c0.22800000000000015,0.11700000000000008 0.457,0.22900000000000015 0.6770000000000007,0.33900000000000036 c0.005000000000000004,0.04800000000000003 0.019000000000000013,0.07900000000000006 0.010000000000000007,0.101 c-0.09100000000000011,0.23600000000000004 0.014000000000000007,0.4080000000000002 0.1840000000000001,0.557 c0.2080000000000001,0.1800000000000001 0.4220000000000002,0.3540000000000002 0.6260000000000004,0.539 c0.08400000000000007,0.07700000000000005 0.1810000000000001,0.16600000000000015 0.1,0.34300000000000036 c-0.128,0 -0.273,0.016000000000000014 -0.4140000000000002,-0.003000000000000004 c-0.5630000000000004,-0.07800000000000006 -1.121,-0.1900000000000001 -1.6580000000000008,-0.3820000000000003 c-0.2480000000000001,-0.08900000000000009 -0.276,-0.131 -0.2130000000000001,-0.3880000000000003 c0.05800000000000004,-0.232 0.014000000000000007,-0.4440000000000003 -0.101,-0.6350000000000005 c-0.11200000000000006,-0.1870000000000001 -0.2430000000000001,-0.3710000000000002 -0.39500000000000035,-0.526 c-0.4400000000000002,-0.453 -0.9600000000000004,-0.79 -1.536,-1.051 c-0.34800000000000036,-0.1580000000000001 -0.6610000000000007,-0.1540000000000001 -0.983,0.07100000000000002 c-0.3680000000000002,0.258 -0.7510000000000004,0.4940000000000002 -1.133,0.7330000000000004 c-1.135,0.7130000000000004 -2.337,1.2650000000000001 -3.656,1.542 c-0.0900000000000001,0.019000000000000013 -0.1800000000000001,0.03700000000000001 -0.271,0.04900000000000003 c-0.34800000000000036,0.04800000000000003 -0.6710000000000007,0.16300000000000014 -0.993,0.3040000000000002 c-0.771,0.33700000000000035 -1.5830000000000002,0.5 -2.422,0.5750000000000004 c-1.054,0.09200000000000011 -2.089,-0.03400000000000003 -3.121,-0.20400000000000001 c-0.5750000000000004,-0.09500000000000011 -1.07,0 -1.488,0.4320000000000002 c-0.2420000000000001,0.25 -0.4970000000000002,0.4900000000000002 -0.7670000000000005,0.7100000000000004 c-0.8210000000000004,0.6740000000000007 -1.7690000000000001,1.105 -2.775,1.423 c-0.3850000000000003,0.12100000000000002 -0.77,0.2410000000000001 -1.147,0.3800000000000002 c-0.6540000000000006,0.2400000000000001 -1.115,0.6800000000000007 -1.383,1.3330000000000002 c-0.234,0.5700000000000004 -0.539,1.105 -0.9,1.606 c-0.04000000000000003,0.05500000000000003 -0.06600000000000006,0.12000000000000002 -0.129,0.23500000000000001 c0.14100000000000001,-0.04600000000000005 0.22700000000000015,-0.06700000000000007 0.3080000000000002,-0.1 c0.772,-0.3100000000000002 1.359,-0.8300000000000004 1.7400000000000002,-1.57 c0.134,-0.26 0.254,-0.532 0.34800000000000036,-0.809 c0.12100000000000002,-0.3560000000000002 0.3560000000000002,-0.558 0.7120000000000004,-0.6570000000000007 c0.6710000000000007,-0.1870000000000001 1.33,-0.4150000000000002 1.959,-0.7200000000000004 c0.7420000000000004,-0.3610000000000002 1.409,-0.8250000000000004 1.9929999999999999,-1.407 c0.137,-0.137 0.279,-0.267 0.4250000000000002,-0.3920000000000003 c0.1880000000000001,-0.16100000000000014 0.4130000000000002,-0.2440000000000001 0.6600000000000007,-0.232 c0.2080000000000001,0.010000000000000007 0.4140000000000002,0.04700000000000003 0.6710000000000007,0.07800000000000006 c-0.08200000000000007,0.12200000000000005 -0.132,0.20500000000000004 -0.1890000000000001,0.2820000000000002 c-0.4800000000000002,0.6300000000000004 -1.078,1.133 -1.77,1.5070000000000001 c-0.6120000000000004,0.3310000000000003 -1.251,0.6100000000000004 -1.8810000000000002,0.91 c-0.3730000000000002,0.1760000000000001 -0.7550000000000004,0.33400000000000035 -1.122,0.522 c-0.4460000000000003,0.23 -0.812,0.553 -1.109,0.9680000000000004 c-1.178,1.653 -2.805,2.6630000000000003 -4.723,3.239 c-0.3250000000000003,0.09700000000000011 -0.6580000000000007,0.16700000000000018 -0.987,0.2480000000000001 c-0.04400000000000004,0.011000000000000012 -0.0900000000000001,0.02900000000000002 -0.133,0.023000000000000027 c-0.04000000000000003,-0.005000000000000004 -0.10200000000000002,-0.03300000000000003 -0.10800000000000005,-0.06000000000000004 c-0.010000000000000007,-0.04500000000000004 0.008000000000000007,-0.10500000000000002 0.035,-0.14400000000000004 c0.024000000000000014,-0.03400000000000003 0.07500000000000002,-0.05000000000000004 0.11600000000000008,-0.07100000000000002 c0.5830000000000004,-0.2840000000000002 1,-0.7340000000000004 1.31,-1.295 C5.120441961288453,26.288453016281128 5.158441961288452,26.22545301628113 5.187441961288452,26.15845301628113 c0.06100000000000004,-0.137 0.16600000000000015,-0.1890000000000001 0.3090000000000002,-0.1790000000000001 c0.028000000000000014,0.0020000000000000018 0.05500000000000003,-0.003000000000000004 0.08300000000000007,0 c0.502,0.06900000000000008 0.8170000000000004,-0.19300000000000014 1.056,-0.5910000000000004 c0.33600000000000035,-0.561 0.529,-1.172 0.5990000000000004,-1.815 c0.04200000000000003,-0.406 0.23500000000000001,-0.6530000000000006 0.6040000000000004,-0.803 c0.3130000000000002,-0.128 0.6250000000000004,-0.268 0.919,-0.4340000000000002 c0.7280000000000004,-0.4130000000000002 1.244,-1.025 1.5750000000000002,-1.787 c0.264,-0.6050000000000004 0.505,-1.221 0.7530000000000004,-1.832 C11.099441961288452,18.68145301628113 11.091441961288453,18.634453016281128 11.097441961288451,18.526453016281128 M22.99144196128845,17.293453016281127 c0.16500000000000015,0.05400000000000005 0.252,0.0040000000000000036 0.2830000000000002,-0.125 c0.02900000000000002,-0.12400000000000005 0.05300000000000004,-0.251 0.05900000000000004,-0.3790000000000002 c0.05900000000000004,-1.105 -0.6830000000000007,-2.189 -2.036,-2.458 c-0.03300000000000003,-0.007000000000000008 -0.06900000000000008,0.007000000000000008 -0.1580000000000001,0.020000000000000014 C22.521441961288453,14.882453016281126 23.18044196128845,15.82245301628113 22.99144196128845,17.293453016281127 M21.83644196128845,8.848453016281127 c-0.2920000000000002,0.022000000000000026 -0.4850000000000002,0.1840000000000001 -0.6610000000000007,0.3650000000000002 c-0.133,0.136 -0.268,0.281 -0.27,0.517 C21.13044196128845,9.595453016281128 21.32844196128845,9.482453016281127 21.52044196128845,9.358453016281128 C21.693441961288453,9.248453016281129 21.829441961288452,9.107453016281127 21.83644196128845,8.848453016281127 " id="svg_2"/>
	<!--<path fill="#FFFFFF" d="M9.953,21.227c-0.045,0.109-0.065,0.167-0.092,0.221c-0.295,0.584-0.433,1.211-0.438,1.859
		c-0.013,1.552-0.015,3.104,0.002,4.655c0.004,0.362,0.073,0.732,0.168,1.083c0.189,0.703,0.639,1.185,1.339,1.417
		c0.681,0.226,1.365,0.249,2.055,0.041c0.8-0.243,1.26-0.789,1.412-1.599c0.046-0.25,0.064-0.51,0.064-0.766
		c0.005-1.671-0.001-3.341,0-5.013c0.002-0.582-0.062-1.153-0.222-1.713c-0.016-0.053-0.025-0.107-0.036-0.16
		c-0.001-0.007,0.008-0.017,0.023-0.043c0.047-0.006,0.109-0.021,0.168-0.021c2.25-0.001,4.5-0.025,6.748,0.009
		c1.139,0.018,2.269,0.189,3.328,0.646c0.368,0.159,0.73,0.35,1.056,0.582c0.54,0.385,0.883,0.915,0.905,1.595
		c0.022,0.767-0.363,1.327-0.974,1.747c-0.321,0.221-0.687,0.346-1.057,0.457c-0.198,0.06-0.397,0.122-0.598,0.235
		c0.074,0.026,0.146,0.056,0.22,0.078c0.476,0.141,0.942,0.306,1.38,0.542c0.358,0.193,0.686,0.425,0.958,0.731
		c0.823,0.924,0.839,2.166,0.039,3.11c-0.295,0.349-0.661,0.606-1.063,0.815c-0.708,0.368-1.465,0.577-2.246,0.71
		c-0.978,0.167-1.965,0.229-2.959,0.226c-1.625-0.007-3.25-0.002-4.875-0.002h-0.331c0.023-0.275,0.043-0.526,0.069-0.817
		c-0.112,0.045-0.188,0.07-0.258,0.106c-0.792,0.403-1.635,0.651-2.513,0.764c-0.608,0.079-1.223,0.15-1.834,0.148
		c-1.086-0.004-2.159-0.143-3.167-0.591c-1.309-0.583-2.012-1.607-2.186-3.009c-0.043-0.354-0.053-0.714-0.056-1.071
		c-0.007-0.955,0.002-1.91-0.005-2.865c-0.002-0.176,0.047-0.278,0.205-0.374c0.897-0.546,1.658-1.248,2.264-2.105
		c0.384-0.543,0.867-0.939,1.48-1.187C9.254,21.534,9.578,21.388,9.953,21.227 M18.915,27.6c-0.007,0.145-0.016,0.244-0.016,0.342
		c-0.001,0.614-0.001,1.228,0,1.842c0,0.22,0,0.44,0.006,0.66c0.006,0.242,0.028,0.268,0.274,0.26
		c0.238-0.007,0.476-0.022,0.712-0.048c0.456-0.05,0.904-0.134,1.327-0.325c0.297-0.134,0.56-0.312,0.747-0.586
		c0.348-0.511,0.278-1.114-0.211-1.494c-0.205-0.16-0.451-0.281-0.697-0.372c-0.554-0.206-1.14-0.252-1.727-0.278
		C19.205,27.595,19.078,27.6,18.915,27.6 M18.895,25.779c0.069,0.019,0.104,0.032,0.138,0.034c0.497,0.018,0.988-0.018,1.468-0.155
		c0.395-0.112,0.757-0.281,1.011-0.621c0.343-0.461,0.295-1.028-0.135-1.408c-0.128-0.114-0.284-0.2-0.438-0.277
		c-0.35-0.172-0.733-0.232-1.116-0.264c-0.289-0.024-0.581-0.005-0.91-0.005C18.878,23.995,18.9,24.886,18.895,25.779"/>
	<path fill="#FFFFFF" d="M6.801,0C6.837,0.193,6.87,0.379,6.909,0.563c0.305,1.439,0.96,2.707,1.89,3.838
		c0.846,1.029,1.844,1.892,2.928,2.656c0.757,0.534,1.542,1.029,2.302,1.559c0.376,0.26,0.731,0.552,1.084,0.844
		c0.106,0.087,0.178,0.22,0.266,0.332c-0.013,0.015-0.025,0.03-0.037,0.045c-0.049-0.011-0.101-0.015-0.147-0.034
		c-1.227-0.493-2.495-0.857-3.78-1.157C10.489,8.43,9.7,7.983,9.018,7.318C7.982,6.309,7.156,5.171,6.727,3.774
		C6.367,2.604,6.35,1.429,6.672,0.248c0.019-0.071,0.044-0.14,0.07-0.208C6.747,0.028,6.768,0.021,6.801,0"/>
	<path fill="#FFFFFF" d="M13.56,12.03c-1.275,0.037-2.491,0.358-3.712,0.649c-0.633,0.149-1.267,0.302-1.908,0.399
		c-1.5,0.226-2.886-0.042-4.086-1.029c-0.371-0.306-0.693-0.656-0.94-1.071c-0.031-0.051-0.056-0.106-0.071-0.171
		c0.826,0.7,1.807,1.011,2.846,1.15c0.864,0.117,1.735,0.165,2.609,0.091c0.384-0.032,0.77-0.043,1.153-0.061
		c0.825-0.04,1.65-0.096,2.476-0.107c0.475-0.006,0.95,0.061,1.425,0.099C13.421,11.985,13.49,12.013,13.56,12.03"/>
	<path fill="#FFFFFF" d="M9.12,8.08C8.6,7.938,8.081,7.797,7.562,7.656C7.112,7.534,6.82,7.238,6.632,6.824
		C6.449,6.418,6.35,5.987,6.312,5.549C6.265,5.011,6.252,4.47,6.253,3.92C6.852,5.554,7.851,6.899,9.12,8.08"/>!-->
</g>
</svg>
